<svg xmlns="http://www.w3.org/2000/svg" width="38.17" height="43.421" viewBox="0 0 38.17 43.421">
  <g id="Group_414" data-name="Group 414" transform="translate(-256.222 -285.325)">
    <path id="Path_121" data-name="Path 121" d="M275.249,309.092c.937,2.1,1.956,4.192,2.937,6.075A8.969,8.969,0,0,0,275.249,309.092Z" fill="none"/>
    <path id="Path_122" data-name="Path 122" d="M269.219,306.753a9,9,0,1,0,7.766,13.516,90.235,90.235,0,0,1-6.321-13.389A8.945,8.945,0,0,0,269.219,306.753Z" fill="none"/>
    <path id="Path_123" data-name="Path 123" d="M282.215,315.75a12.916,12.916,0,0,1-.939,4.826c.023.034.051.08.073.113,2.806-4.157,9.552-17.688,9.552-22.319v-.005a9.563,9.563,0,0,0-9.551-9.549h0a9.551,9.551,0,0,0-9.549,9.553,17.255,17.255,0,0,0,1.124,4.929A13.014,13.014,0,0,1,282.215,315.75Z" fill="none"/>
    <path id="Path_124" data-name="Path 124" d="M270.664,306.88a90.235,90.235,0,0,0,6.321,13.389,8.929,8.929,0,0,0,1.23-4.519c0-.2-.017-.389-.029-.583-.981-1.883-2-3.978-2.937-6.075A8.96,8.96,0,0,0,270.664,306.88Z"/>
    <path id="Path_125" data-name="Path 125" d="M281.35,285.325h0a13.041,13.041,0,0,0-13.04,13.045,17.622,17.622,0,0,0,.928,4.384,12.91,12.91,0,0,1,3.687.544,17.255,17.255,0,0,1-1.124-4.929,9.551,9.551,0,0,1,9.549-9.553h0a9.563,9.563,0,0,1,9.551,9.549v.005c0,4.631-6.746,18.162-9.552,22.319-.022-.033-.05-.079-.073-.113a13,13,0,0,1-1.83,3.166c.723.8,1.375,1.264,1.9,1.264,3.645,0,13.043-21.762,13.043-26.636v-.006A13.057,13.057,0,0,0,281.35,285.325Z"/>
    <path id="Path_126" data-name="Path 126" d="M269.219,324.746a9,9,0,1,1,1.445-17.866c-.56-1.475-1.046-2.875-1.429-4.126h-.016a13,13,0,1,0,10.227,20.989,22.947,22.947,0,0,1-2.461-3.473A8.992,8.992,0,0,1,269.219,324.746Z"/>
    <path id="Path_127" data-name="Path 127" d="M275.249,309.092c-.9-2.01-1.716-4.009-2.327-5.794a12.91,12.91,0,0,0-3.687-.544c.383,1.251.869,2.651,1.429,4.126A8.96,8.96,0,0,1,275.249,309.092Z"/>
    <path id="Path_128" data-name="Path 128" d="M278.186,315.167c.012.194.029.386.029.583a8.929,8.929,0,0,1-1.23,4.519,22.947,22.947,0,0,0,2.461,3.473,13,13,0,0,0,1.83-3.166C280.47,319.366,279.363,317.428,278.186,315.167Z"/>
    <path id="Path_129" data-name="Path 129" d="M272.622,320.664a1,1,0,0,1-.707-.293L268,316.457a1,1,0,0,1-.293-.707v-4.908a1,1,0,0,1,2,0v4.493l3.622,3.622a1,1,0,0,1-.707,1.707Z"/>
  </g>
</svg>
