<svg id="Layer_1" data-name="Layer 1" xmlns="http://www.w3.org/2000/svg" viewBox="0 0 41.43 39.71">
    <defs>
        <style>
            .cls-1 {
                fill: #231f20;
            }
        </style>
    </defs>
    <path class="cls-1"
        d="M393.5,111.19a1,1,0,0,1-1-1V86.47L378.8,73.19a1,1,0,0,1,.7-1.72h39.42a1,1,0,0,1,.7,1.72l-13.7,13.28v16.3a1,1,0,0,1-.45.84L394,111A1,1,0,0,1,393.5,111.19ZM382,73.47l12.23,11.86a1,1,0,0,1,.31.72v22.3l9.42-6.12V86.05a1,1,0,0,1,.31-.72l12.22-11.86Zm23,29.3h0Z"
        transform="translate(-378.5 -71.47)" />
</svg>