<svg id="loupe_1_" data-name="loupe (1)" xmlns="http://www.w3.org/2000/svg" width="28.725" height="28.503" viewBox="0 0 28.725 28.503">
  <g id="Group_370" data-name="Group 370">
    <g id="Group_367" data-name="Group 367" transform="translate(3.689)">
      <path id="Path_101" data-name="Path 101" d="M282.05,235.047a.379.379,0,0,0,.328-.565,12.13,12.13,0,0,0-22.569,6.179.692.692,0,0,0,1.384,0,10.745,10.745,0,0,1,19.8-5.781.371.371,0,0,0,.315.173Z" transform="translate(-259.809 -212.849)" fill="#1a5ab4"/>
      <path id="Path_102" data-name="Path 102" d="M269.821,215.1a5.39,5.39,0,1,0,1.554-6.758.685.685,0,0,1-.9-.062h0a.7.7,0,0,1,.066-1.044,6.777,6.777,0,1,1-1.949,8.506.7.7,0,0,1,.374-.97h0A.685.685,0,0,1,269.821,215.1Z" transform="translate(-262.491 -205.874)" fill="#1a5ab4"/>
    </g>
    <g id="Group_368" data-name="Group 368" transform="translate(0 0.409)">
      <path id="Path_103" data-name="Path 103" d="M263.794,214.08H255.17a.692.692,0,0,1,0-1.384h8.624a.692.692,0,0,1,0,1.384Z" transform="translate(-254.478 -208.384)" fill="#1a5ab4"/>
      <path id="Path_104" data-name="Path 104" d="M261.4,216.474a.692.692,0,0,1-.692-.692v-8.625a.692.692,0,0,1,1.384,0v8.625A.692.692,0,0,1,261.4,216.474Z" transform="translate(-256.396 -206.465)" fill="#1a5ab4"/>
    </g>
    <g id="Group_369" data-name="Group 369" transform="translate(18.716 25.474)">
      <path id="Path_105" data-name="Path 105" d="M290.838,244.066h-8.625a.692.692,0,0,1,0-1.384h8.625a.692.692,0,1,1,0,1.384Z" transform="translate(-281.521 -242.682)" fill="#1a5ab4"/>
    </g>
  </g>
</svg>
