<svg id="loupe_1_" data-name="loupe (1)" xmlns="http://www.w3.org/2000/svg" width="26.795" height="27.929" viewBox="0 0 26.795 27.929">
  <g id="Group_319" data-name="Group 319" transform="translate(-190.79 -66.831)">
    <g id="Group_319-2" data-name="Group 319" transform="translate(190.79 70.973)">
      <path id="Path_82" data-name="Path 82" d="M210.452,107.376a.577.577,0,0,1-.577-.577,8.965,8.965,0,0,0-17.931,0,.577.577,0,1,1-1.155,0,10.12,10.12,0,1,1,20.24,0A.577.577,0,0,1,210.452,107.376Z" transform="translate(-190.79 -83.589)" fill="#005bae"/>
      <path id="Path_83" data-name="Path 83" d="M204.181,85.311a5.653,5.653,0,1,1,5.653-5.653A5.659,5.659,0,0,1,204.181,85.311Zm0-10.151a4.5,4.5,0,1,0,4.5,4.5A4.5,4.5,0,0,0,204.181,75.16Z" transform="translate(-194.061 -74.005)" fill="#005bae"/>
    </g>
    <g id="Group_320" data-name="Group 320" transform="translate(202.947 66.831)">
      <path id="Path_84" data-name="Path 84" d="M231.074,100.583a.578.578,0,0,1-.577-.577,8.969,8.969,0,0,0-6.039-8.477.577.577,0,0,1,.376-1.092,10.126,10.126,0,0,1,6.817,9.569A.578.578,0,0,1,231.074,100.583Z" transform="translate(-217.014 -76.795)" fill="#005bae"/>
      <path id="Path_85" data-name="Path 85" d="M219.367,77.155a.577.577,0,0,1-.342-1.043,4.5,4.5,0,0,0-3.842-7.969,4.471,4.471,0,0,0-2.309,1.506.577.577,0,0,1-.9-.728,5.653,5.653,0,0,1,10.041,3.563,5.677,5.677,0,0,1-2.31,4.559A.578.578,0,0,1,219.367,77.155Z" transform="translate(-211.848 -66.831)" fill="#005bae"/>
    </g>
  </g>
</svg>
