<svg xmlns="http://www.w3.org/2000/svg" width="34.006" height="28.308" viewBox="0 0 34.006 28.308">
  <g id="Group_381" data-name="Group 381" transform="translate(-439.161 -208.87)">
    <g id="Group_378" data-name="Group 378" transform="translate(446.008 213.067)">
      <path id="Path_109" data-name="Path 109" d="M467.554,241.3a.585.585,0,0,1-.586-.585,9.087,9.087,0,1,0-18.174,0,.585.585,0,0,1-1.171,0,10.257,10.257,0,1,1,20.515,0A.585.585,0,0,1,467.554,241.3Z" transform="translate(-447.624 -217.189)" fill="#005bae"/>
      <path id="Path_110" data-name="Path 110" d="M458.951,225.517a5.73,5.73,0,1,1,5.729-5.73A5.736,5.736,0,0,1,458.951,225.517Zm0-10.289a4.559,4.559,0,1,0,4.559,4.559A4.564,4.564,0,0,0,458.951,215.229Z" transform="translate(-448.693 -214.058)" fill="#005bae"/>
    </g>
    <g id="Group_379" data-name="Group 379" transform="translate(458.331 208.87)">
      <path id="Path_111" data-name="Path 111" d="M478.794,236.235a.585.585,0,0,1-.585-.585,9.092,9.092,0,0,0-6.121-8.592.585.585,0,0,1,.382-1.106,10.262,10.262,0,0,1,6.909,9.7A.585.585,0,0,1,478.794,236.235Z" transform="translate(-464.543 -212.126)" fill="#005bae"/>
      <path id="Path_112" data-name="Path 112" d="M470.476,219.333a.585.585,0,0,1-.347-1.057,4.561,4.561,0,0,0-3.894-8.077,4.532,4.532,0,0,0-2.341,1.527.585.585,0,1,1-.909-.739,5.73,5.73,0,1,1,7.836,8.233A.581.581,0,0,1,470.476,219.333Z" transform="translate(-462.855 -208.87)" fill="#005bae"/>
    </g>
    <g id="Group_380" data-name="Group 380" transform="translate(439.161 208.87)">
      <path id="Path_113" data-name="Path 113" d="M439.746,236.235a.585.585,0,0,0,.585-.585,9.092,9.092,0,0,1,6.121-8.592.585.585,0,1,0-.382-1.106,10.262,10.262,0,0,0-6.909,9.7A.585.585,0,0,0,439.746,236.235Z" transform="translate(-439.161 -212.126)" fill="#005bae"/>
      <path id="Path_114" data-name="Path 114" d="M447.445,219.333a.585.585,0,0,0,.347-1.057,4.561,4.561,0,0,1,3.894-8.077,4.532,4.532,0,0,1,2.341,1.527.585.585,0,1,0,.909-.739,5.73,5.73,0,1,0-7.836,8.233A.58.58,0,0,0,447.445,219.333Z" transform="translate(-440.23 -208.87)" fill="#005bae"/>
    </g>
  </g>
</svg>
