<?xml version="1.0" encoding="utf-8"?>
<!-- Generator: Adobe Illustrator 25.4.0, SVG Export Plug-In . SVG Version: 6.00 Build 0)  -->
<svg version="1.1" id="Layer_1" xmlns="http://www.w3.org/2000/svg" xmlns:xlink="http://www.w3.org/1999/xlink" x="0px" y="0px"
	 viewBox="0 0 500 500" style="enable-background:new 0 0 500 500;" xml:space="preserve">
<style type="text/css">
	.st0{fill:#FFFFFF;stroke:#000000;stroke-width:13;stroke-miterlimit:10;}
</style>
<g>
	<circle class="st0" cx="246.08" cy="248.68" r="171.73"/>
	<g>
		<path d="M258.43,182.04c0.23,6.8-4.76,12.24-12.7,12.24c-7.03,0-12.02-5.44-12.02-12.24c0-7.03,5.22-12.47,12.47-12.47
			C253.67,169.57,258.43,175.01,258.43,182.04z M236.21,317.87V217.59c0-2.61,2.11-4.72,4.72-4.72h10.5c2.61,0,4.72,2.11,4.72,4.72
			v100.28c0,2.61-2.11,4.72-4.72,4.72h-10.5C238.33,322.59,236.21,320.48,236.21,317.87z"/>
	</g>
</g>
</svg>
