<svg xmlns="http://www.w3.org/2000/svg" width="30.752" height="47.3" viewBox="0 0 30.752 47.3">
  <g id="Group_262" data-name="Group 262" transform="translate(-167.829 -275.34)">
    <path id="Path_52" data-name="Path 52" d="M-545.05,188.331a15.426,15.426,0,0,0-15.157,15.3,15.3,15.3,0,0,0,2.22,8.037,178.067,178.067,0,0,1,10.794,20.359l1.279,2.9a1.182,1.182,0,0,0,2.163,0l1.093-2.474a185.844,185.844,0,0,1,11-20.818,15.3,15.3,0,0,0,2.2-7.928A15.376,15.376,0,0,0-545.05,188.331Zm.218,20.439a6.5,6.5,0,0,1-6.5-6.5,6.5,6.5,0,0,1,6.5-6.5,6.5,6.5,0,0,1,6.5,6.5A6.5,6.5,0,0,1-544.832,208.77Z" transform="translate(728.036 87.01)" fill="#1b5bae"/>
    <circle id="Ellipse_10" data-name="Ellipse 10" cx="7" cy="7" r="7" transform="translate(176 282)" fill="#fff"/>
  </g>
</svg>
