<svg id="airdrop" xmlns="http://www.w3.org/2000/svg" width="30.028" height="28.502" viewBox="0 0 30.028 28.502">
  <path id="Path_53" data-name="Path 53" d="M15.014,0A15.013,15.013,0,0,0,8.039,28.308a.88.88,0,1,0,.82-1.557A13.254,13.254,0,1,1,21,26.838a.88.88,0,1,0,.8,1.568A15.013,15.013,0,0,0,15.014,0Zm0,0" transform="translate(0 0)" fill="#1b5bae"/>
  <path id="Path_54" data-name="Path 54" d="M97.386,94.109a10.427,10.427,0,1,0-13.5,3.778.88.88,0,0,0,.789-1.573,8.673,8.673,0,1,1,7.754,0,.88.88,0,1,0,.789,1.573A10.488,10.488,0,0,0,97.386,94.109Zm0,0" transform="translate(-73.543 -73.543)" fill="#1b5bae"/>
  <path id="Path_55" data-name="Path 55" d="M167.954,162.1a5.85,5.85,0,1,0-8.467,5.232.88.88,0,0,0,.789-1.573,4.091,4.091,0,1,1,3.655,0,.88.88,0,0,0,.789,1.573A5.826,5.826,0,0,0,167.954,162.1Zm0,0" transform="translate(-147.09 -147.09)" fill="#1b5bae"/>
</svg>
