<?xml version="1.0" encoding="utf-8"?>
<!-- Generator: Adobe Illustrator 25.4.0, SVG Export Plug-In . SVG Version: 6.00 Build 0)  -->
<svg version="1.1" id="Layer_1" xmlns="http://www.w3.org/2000/svg" xmlns:xlink="http://www.w3.org/1999/xlink" x="0px" y="0px"
	 viewBox="0 0 500 500" style="enable-background:new 0 0 500 500;" xml:space="preserve">
<style type="text/css">
	.st0{fill:none;stroke:#ED1C24;stroke-width:13;stroke-miterlimit:10;}
	.st1{fill:#EE2D2C;}
</style>
<g>
	<path class="st0" d="M159.28,69.57l-98.14,98.14c-5.69,5.69-8.88,13.4-8.88,21.44v138.79c0,8.04,3.19,15.75,8.88,21.44l98.14,98.14
		c5.69,5.69,13.4,8.88,21.44,8.88h138.79c8.04,0,15.75-3.19,21.44-8.88l98.14-98.14c5.69-5.69,8.88-13.4,8.88-21.44V189.14
		c0-8.04-3.19-15.75-8.88-21.44l-98.14-98.14c-5.69-5.69-13.4-8.88-21.44-8.88H180.72C172.68,60.69,164.97,63.88,159.28,69.57z"/>
	<g>
		<path class="st1" d="M235.72,326.96c0-8.78,6.11-15.12,14.4-15.12c8.78,0,14.39,6.35,14.39,15.12c0,8.54-5.61,15.12-14.39,15.12
			C241.58,342.08,235.72,335.5,235.72,326.96z M241.83,292.08L238.41,175h23.42l-3.42,117.08H241.83z"/>
	</g>
</g>
</svg>
