<?xml version="1.0" encoding="utf-8"?>
<!-- Generator: Adobe Illustrator 25.4.0, SVG Export Plug-In . SVG Version: 6.00 Build 0)  -->
<svg version="1.1" id="Layer_1" xmlns="http://www.w3.org/2000/svg" xmlns:xlink="http://www.w3.org/1999/xlink" x="0px" y="0px"
	 viewBox="0 0 500 500" style="enable-background:new 0 0 500 500;" xml:space="preserve">
<style type="text/css">
	.st0{fill:none;stroke:#FBB040;stroke-width:10;stroke-miterlimit:10;}
	.st1{fill:#FBB040;}
</style>
<g>
	<path class="st0" d="M231.72,102.11L69.99,377.47c-8.18,13.92,1.86,31.46,18.01,31.46h324.12c16.16,0,26.2-17.57,17.99-31.5
		L267.73,102.08C259.64,88.36,239.79,88.38,231.72,102.11z"/>
	<g>
		<path class="st1" d="M235.67,333.89c0-8.78,6.11-15.12,14.4-15.12c8.78,0,14.39,6.35,14.39,15.12c0,8.54-5.61,15.12-14.39,15.12
			C241.53,349.01,235.67,342.43,235.67,333.89z M241.77,299.01l-3.42-117.08h23.42l-3.42,117.08H241.77z"/>
	</g>
</g>
</svg>
