<svg xmlns="http://www.w3.org/2000/svg" width="23.944" height="29.262" viewBox="0 0 23.944 29.262">
  <g id="Group_322" data-name="Group 322" transform="translate(-257.523 -68.462)">
    <path id="Path_89" data-name="Path 89" d="M269.495,106.5c-6.031,0-11.171-4.792-11.955-11.146a2.13,2.13,0,0,1,.509-1.675,1.9,1.9,0,0,1,1.435-.656h20.023a1.9,1.9,0,0,1,1.434.656,2.133,2.133,0,0,1,.51,1.675C280.666,101.713,275.526,106.5,269.495,106.5ZM259.484,94.313a.628.628,0,0,0-.472.222.845.845,0,0,0-.2.666c.7,5.711,5.3,10.018,10.68,10.018s9.975-4.307,10.68-10.018a.843.843,0,0,0-.2-.666.627.627,0,0,0-.472-.222Z" transform="translate(0 -8.781)" fill="#005bae"/>
    <path id="Path_90" data-name="Path 90" d="M259.421,80.432a.482.482,0,0,1-.482-.487l.028-2.6a1.659,1.659,0,0,1-.742-.553,2.267,2.267,0,0,1-.452-1.388V70.49a1.881,1.881,0,0,1,1.68-2.028h20.262a1.881,1.881,0,0,1,1.68,2.028V75.4a1.88,1.88,0,0,1-1.68,2.027l-16.026,0-3.985,2.911A.48.48,0,0,1,259.421,80.432Zm.033-3.968a.482.482,0,0,1,.482.487l-.022,2.043,3.335-2.437a.483.483,0,0,1,.285-.093l16.183,0c.388,0,.716-.487.716-1.063V70.49c0-.577-.328-1.064-.716-1.064H259.453c-.389,0-.716.487-.716,1.064V75.4a1.321,1.321,0,0,0,.25.8.621.621,0,0,0,.466.266h0Z" transform="translate(-0.089 0)" fill="#005bae"/>
    <path id="Path_91" data-name="Path 91" d="M278.774,73.634H261.892a.482.482,0,1,1,0-.964h16.882a.482.482,0,0,1,0,.964Z" transform="translate(-1.389 -1.504)" fill="#005bae"/>
    <path id="Path_92" data-name="Path 92" d="M272.514,76.856H261.892a.482.482,0,1,1,0-.964h10.622a.482.482,0,1,1,0,.964Z" transform="translate(-1.389 -2.656)" fill="#005bae"/>
  </g>
</svg>
