<svg xmlns="http://www.w3.org/2000/svg" width="28.104" height="27.959" viewBox="0 0 28.104 27.959">
  <g id="Group_321" data-name="Group 321" transform="translate(-66.066 -66.336)">
    <path id="Path_86" data-name="Path 86" d="M70.283,105.97c-1.179,0-4.217-7.037-4.217-8.613a4.217,4.217,0,0,1,4.217-4.218h0A4.222,4.222,0,0,1,74.5,97.355v0C74.5,98.933,71.462,105.97,70.283,105.97Zm0-11.7h0a3.089,3.089,0,0,0-3.088,3.089c0,1.5,2.182,5.873,3.089,7.217.908-1.344,3.089-5.719,3.089-7.217v0A3.092,3.092,0,0,0,70.284,94.268Z" transform="translate(0 -11.675)" fill="#005bae"/>
    <path id="Path_87" data-name="Path 87" d="M105.131,79.167c-1.179,0-4.217-7.037-4.217-8.613a4.223,4.223,0,0,1,4.216-4.219h0a4.222,4.222,0,0,1,4.217,4.216v0C109.349,72.13,106.31,79.167,105.131,79.167Zm0-11.7h0a3.093,3.093,0,0,0-3.088,3.09c0,1.5,2.182,5.873,3.089,7.217.908-1.344,3.089-5.719,3.089-7.217v0A3.092,3.092,0,0,0,105.131,67.465Z" transform="translate(-15.179)" fill="#005bae"/>
    <path id="Path_88" data-name="Path 88" d="M84.338,93.254a.565.565,0,0,1-.038-1.128c.051,0,5.164-.384,6.672-3.116a.773.773,0,0,0,.134-.647c-.221-.492-1.579-.8-2.57-1.022-1.333-.3-2.483-.56-2.878-1.334a1.25,1.25,0,0,1,0-1.1c1.027-2.386,5.422-3.453,5.92-3.567a.564.564,0,1,1,.252,1.1c-1.2.275-4.456,1.335-5.135,2.914-.007.018-.044.107-.028.139.154.3,1.338.568,2.121.745,1.425.322,2.9.654,3.351,1.66a1.8,1.8,0,0,1-.175,1.655c-1.805,3.272-7.348,3.681-7.584,3.7Z" transform="translate(-7.713 -6.53)" fill="#005bae"/>
  </g>
</svg>
