<?xml version="1.0" encoding="utf-8"?>
<!-- Generator: Adobe Illustrator 25.4.0, SVG Export Plug-In . SVG Version: 6.00 Build 0)  -->
<svg version="1.1" id="Layer_1" xmlns="http://www.w3.org/2000/svg" xmlns:xlink="http://www.w3.org/1999/xlink" x="0px" y="0px"
	 viewBox="0 0 500 500" style="enable-background:new 0 0 500 500;" xml:space="preserve">
<style type="text/css">
	.st0{fill:#FFFFFF;stroke:#000000;stroke-width:10;stroke-miterlimit:10;}
</style>
<path class="st0" d="M126.5,365.63V134.37c0-31.96,25.91-57.87,57.87-57.87h131.26c31.96,0,57.87,25.91,57.87,57.87v231.26
	c0,31.96-25.91,57.87-57.87,57.87H184.37C152.41,423.5,126.5,397.59,126.5,365.63z"/>
<g>
	<g>
		<path class="st0" d="M303.11,235.4l-41.74-30.84c-6.21-4.59-15.01-0.15-15.01,7.57v15.04c-22.88,3.97-55.45,47.98-53.17,67.83
			c0.3,2.64,3.93,3.16,4.95,0.7c6-14.41,24.15-34.01,48.22-36.23v14.34c0,7.73,8.79,12.16,15.01,7.57l41.74-30.84
			C308.2,246.78,308.2,239.17,303.11,235.4z"/>
	</g>
</g>
</svg>
