<svg xmlns="http://www.w3.org/2000/svg" width="29.342" height="37.778" viewBox="0 0 29.342 37.778">
  <g id="Group_611" data-name="Group 611" transform="translate(-7584.225 -11566.35)">
    <path id="Path_214" data-name="Path 214" d="M409.135,491.364H388.129a4.173,4.173,0,0,1-4.168-4.168l1.25-13.9a14.6,14.6,0,0,0-.644-6.478,13.787,13.787,0,0,1-.606-4.027c0-7.661,5.994-8.571,7.831-8.668.632-.033,1.26-.115,1.925-.2l.2-.025a36.267,36.267,0,0,1,9.437,0l.2.025c.665.087,1.293.17,1.925.2,1.837.1,7.831,1.007,7.831,8.659l0,.175a13.791,13.791,0,0,1-.605,3.871,14.6,14.6,0,0,0-.641,6.458l1.246,13.821A4.187,4.187,0,0,1,409.135,491.364Zm-10.5-35.778a34.468,34.468,0,0,0-4.459.29l-.2.026c-.674.088-1.37.18-2.081.218-2.217.116-5.936,1.138-5.936,6.67a11.8,11.8,0,0,0,.519,3.443,16.542,16.542,0,0,1,.724,7.242l-1.247,13.811a2.16,2.16,0,0,0,2.172,2.078h21.006A2.17,2.17,0,0,0,411.3,487.2l-1.242-13.731a16.526,16.526,0,0,1,.72-7.222,11.808,11.808,0,0,0,.519-3.444l0-.168c-.067-5.393-3.739-6.4-5.935-6.511-.711-.038-1.408-.13-2.081-.219l-.194-.025A34.468,34.468,0,0,0,398.633,455.586Z" transform="translate(7200.264 11112.764)" fill="#1a1818"/>
    <path id="Path_215" data-name="Path 215" d="M406.794,488.269H390.469a3.456,3.456,0,0,1-3.462-3.441l.972-12.748a11.071,11.071,0,0,0-.491-4.964,10.926,10.926,0,0,1-.481-3.194c0-4.883,3.253-6.8,6.3-6.96.512-.026,1.018-.1,1.526-.162l.105-.014a28.506,28.506,0,0,1,7.394,0l.138.018c.5.065.992.131,1.492.157,3.044.161,6.3,2.071,6.3,6.953l0,.157a10.922,10.922,0,0,1-.48,3.053,11.008,11.008,0,0,0-.488,4.933l.968,12.789A3.381,3.381,0,0,1,406.794,488.269Zm-8.164-29.723a26.5,26.5,0,0,0-3.435.223l-.1.013c-.543.072-1.105.147-1.682.178-1.644.087-4.4.849-4.4,4.962a8.935,8.935,0,0,0,.394,2.61,13.05,13.05,0,0,1,.571,5.714L389,484.9a1.427,1.427,0,0,0,1.465,1.365h16.325a1.362,1.362,0,0,0,1.462-1.347l-.964-12.7a13,13,0,0,1,.568-5.682,8.919,8.919,0,0,0,.394-2.612v-.15c-.06-3.99-2.775-4.734-4.4-4.819-.552-.029-1.1-.1-1.647-.172l-.137-.018A26.58,26.58,0,0,0,398.63,458.546Z" transform="translate(7200.264 11112.764)" fill="#1a1818"/>
  </g>
</svg>
