<svg xmlns="http://www.w3.org/2000/svg" width="36.796" height="24.045" viewBox="0 0 36.796 24.045">
  <g id="Group_612" data-name="Group 612" transform="translate(-7765.208 -11575.866)">
    <path id="Path_220" data-name="Path 220" d="M583.342,487.147a3.067,3.067,0,0,1-2.183-.9l-.089-.089a51.052,51.052,0,0,0-9.543-7.453l-5.679-3.467a3.086,3.086,0,0,1,0-4.365l.906-.906a23.484,23.484,0,0,1,33.175,0l.906.906a3.084,3.084,0,0,1,0,4.365l-.19.149-3.669,2.218a1,1,0,1,1-1.034-1.711l3.548-2.146a1.085,1.085,0,0,0-.069-1.461l-.906-.906a21.482,21.482,0,0,0-30.347,0l-.905.906a1.085,1.085,0,0,0-.069,1.461l5.367,3.246a52.977,52.977,0,0,1,9.919,7.746l.091.091a1.113,1.113,0,0,0,1.539,0l.1-.1a1,1,0,0,1,1.406,1.422l-.092.091A3.061,3.061,0,0,1,583.342,487.147Z" transform="translate(7200.264 11112.764)" fill="#1a1818"/>
    <path id="Path_221" data-name="Path 221" d="M581.091,479.132a1,1,0,0,1-1-.95c-.1-2.069-3.632-5.443-6.862-7.3a1,1,0,0,1,.995-1.735c2.124,1.219,7.678,5.2,7.864,8.931a1,1,0,0,1-.949,1.049Z" transform="translate(7200.264 11112.764)" fill="#1a1818"/>
    <path id="Path_222" data-name="Path 222" d="M584.187,481.148a1,1,0,0,1-.429-1.9c.417-.2,1.191-1.735,1.756-2.856,1.375-2.733,3.087-6.132,6.147-7.3a1,1,0,1,1,.716,1.867c-2.338.9-3.857,3.912-5.077,6.336-.956,1.9-1.647,3.271-2.684,3.764A1.01,1.01,0,0,1,584.187,481.148Z" transform="translate(7200.264 11112.764)" fill="#1a1818"/>
  </g>
</svg>
