<svg xmlns="http://www.w3.org/2000/svg" width="35.726" height="36.11" viewBox="0 0 35.726 36.11">
  <g id="Group_597" data-name="Group 597" transform="translate(-72.737 -455.62)">
    <path id="Path_192" data-name="Path 192" d="M96.994,491.73c-5,0-10.765-2.346-15.575-6.8-5.513-5.105-9.167-13-8.63-16.381a1.361,1.361,0,0,1,.7-1c1.11-.6,3.1.159,7.7,2.184,2.045.9,5.4,2.376,6.422,2.376h.029c.152-.246.419-.763.66-1.228,1.451-2.808,3.88-7.506,7.463-8.133a5.374,5.374,0,0,1,4.648,1.671,25.153,25.153,0,0,1,7.608,12.46c1.054,4.578.21,8.638-2.376,11.433A11.472,11.472,0,0,1,96.994,491.73ZM74.73,469.37c.027,2.881,3.139,9.55,8.048,14.1,7.312,6.768,16.911,8.332,21.4,3.486,2.123-2.293,2.8-5.712,1.895-9.625a23.142,23.142,0,0,0-7.018-11.441,3.459,3.459,0,0,0-2.945-1.168c-2.606.456-4.834,4.765-6.031,7.081a9.078,9.078,0,0,1-1.049,1.788c-1.123,1.212-3.6.2-8.643-2.022A39.123,39.123,0,0,0,74.73,469.37Z" fill="#1a1818"/>
    <path id="Path_193" data-name="Path 193" d="M88.91,472.513a1.211,1.211,0,0,1-.339-.05c-2.028-.609-6.791-13.148-6.671-15.353a1.3,1.3,0,0,1,1.036-1.355c3.659-.678,9.45,1.145,13.51,6.75l.243.337-.05.495c-.074.453-.364.893-1.628,1.8-2.126,1.523-3.667,4.244-4.686,6.045-.156.275-.3.529-.433.756h0A1.13,1.13,0,0,1,88.91,472.513Zm-.744-1.583Zm-4.249-13.285c.308,2.211,3.295,9.672,4.852,12.227,1.105-1.944,2.728-4.677,5.076-6.359.235-.169.411-.3.544-.413C90.938,458.726,86.5,457.453,83.917,457.645Z" fill="#1a1818"/>
  </g>
</svg>
