<svg xmlns="http://www.w3.org/2000/svg" width="27.382" height="38.652" viewBox="0 0 27.382 38.652">
  <g id="Group_600" data-name="Group 600" transform="translate(-200.305 -454.002)">
    <path id="Path_200" data-name="Path 200" d="M214,492.654c-8.829,0-13.691-5.736-13.691-16.153,0-10.82,5.235-22.5,13.691-22.5s13.691,11.679,13.691,22.5C227.687,486.918,222.825,492.654,214,492.654ZM214,456C207,456,202.3,466.6,202.3,476.5c0,9.259,4.043,14.153,11.691,14.153s11.691-4.894,11.691-14.153C225.687,466.6,220.989,456,214,456Z" fill="#1a1818"/>
    <path id="Path_201" data-name="Path 201" d="M214,482.974a6.335,6.335,0,1,1,6.335-6.335A6.342,6.342,0,0,1,214,482.974Zm0-10.67a4.335,4.335,0,1,0,4.335,4.335A4.339,4.339,0,0,0,214,472.3Z" fill="#1a1818"/>
  </g>
</svg>
