<svg xmlns="http://www.w3.org/2000/svg" width="36.607" height="36.607" viewBox="0 0 36.607 36.607">
  <g id="Group_607" data-name="Group 607" transform="translate(-444.242 -456.746)">
    <path id="Path_216" data-name="Path 216" d="M468.92,493.354a1.521,1.521,0,0,1-.578-.116,1.5,1.5,0,0,1-.93-1.392l0-6.087a.317.317,0,0,0-.114-.264.359.359,0,0,0-.32-.065c-2.871.629-7.649.027-14.122-6.446-7.731-7.73-10.8-16.778-6.976-20.6s12.868-.755,20.6,6.975c6.473,6.473,7.078,11.252,6.445,14.121a.366.366,0,0,0,.065.321.358.358,0,0,0,.273.114l.153,0h5.926a1.507,1.507,0,0,1,1.065,2.572l-10.423,10.423A1.5,1.5,0,0,1,468.92,493.354Zm-1.84-9.936a2.323,2.323,0,0,1,2.333,2.4v4.836l8.739-8.739-4.839,0a2.332,2.332,0,0,1-2.34-2.865c.742-3.365-1.356-7.726-5.906-12.277-6.708-6.707-14.844-9.9-17.77-6.975s.269,11.062,6.976,17.769c4.551,4.55,8.91,6.647,12.277,5.907A2.469,2.469,0,0,1,467.08,483.418Z" fill="#1a1818"/>
    <path id="Path_217" data-name="Path 217" d="M452.169,470.85a1,1,0,0,1-.417-1.91l.424-.194a8.258,8.258,0,0,0,4.068-4.065l.2-.429a1,1,0,1,1,1.817.834l-.2.429a10.26,10.26,0,0,1-5.053,5.049l-.423.2A1.012,1.012,0,0,1,452.169,470.85Z" fill="#1a1818"/>
  </g>
</svg>
