<svg xmlns="http://www.w3.org/2000/svg" width="21.503" height="39.389" viewBox="0 0 21.503 39.389">
  <g id="Group_609" data-name="Group 609" transform="translate(-511.002 -455.426)">
    <path id="Path_218" data-name="Path 218" d="M528.559,494.814H514.886A3.888,3.888,0,0,1,511,490.931V465.918a3.868,3.868,0,0,1,.591-2.056,1.233,1.233,0,0,0,0-1.316,3.879,3.879,0,0,1-.531-1.959v-1.276a3.889,3.889,0,0,1,3.884-3.885h13.673a3.889,3.889,0,0,1,3.884,3.885v1.276a3.871,3.871,0,0,1-.591,2.056,1.233,1.233,0,0,0,0,1.316,3.878,3.878,0,0,1,.53,1.959v25.013A3.888,3.888,0,0,1,528.559,494.814Zm-13.611-37.388a1.887,1.887,0,0,0-1.884,1.885v1.276a1.877,1.877,0,0,0,.256.948,3.219,3.219,0,0,1-.033,3.391,1.865,1.865,0,0,0-.285.992v25.013a1.885,1.885,0,0,0,1.884,1.883h13.673a1.885,1.885,0,0,0,1.883-1.883V465.918a1.872,1.872,0,0,0-.256-.948,3.219,3.219,0,0,1,.034-3.392,1.861,1.861,0,0,0,.285-.991v-1.276a1.886,1.886,0,0,0-1.884-1.885Z" fill="#1a1818"/>
    <g id="Group_608" data-name="Group 608">
      <path id="Path_219" data-name="Path 219" d="M526.375,483.367h-.027a1,1,0,0,1-.973-1.026c.071-2.631.114-5.487.1-7.174l-1.872,3.86a1.6,1.6,0,0,1-1.451.911h0a1.6,1.6,0,0,1-1.451-.908l-1.882-3.867c-.013,1.686.03,4.545.1,7.178a1,1,0,0,1-.972,1.026,1.012,1.012,0,0,1-1.027-.973c-.243-9.1-.075-9.266.293-9.634.215-.213.606-.469,1.555-.288a1.75,1.75,0,0,1,1.44.974l1.943,3.993,1.935-3.992a1.755,1.755,0,0,1,1.442-.975c.95-.179,1.341.075,1.554.289.368.367.536.535.293,9.633A1,1,0,0,1,526.375,483.367Z" fill="#1a1818"/>
    </g>
  </g>
</svg>
