<svg xmlns="http://www.w3.org/2000/svg" width="38.914" height="42.221" viewBox="0 0 38.914 42.221">
  <g id="Group_610" data-name="Group 610" transform="translate(-7334.66 -11566.546)">
    <g id="Group_598" data-name="Group 598" transform="translate(7200.264 11112.764)">
      <path id="Path_194" data-name="Path 194" d="M162.811,483.848a1,1,0,0,1-.358-1.934,28.661,28.661,0,0,1,3.42-1.033c2.534-.642,3.93-1,5.07-3.877.988-2.494-.236-5.156-1.317-7.5-.3-.651-.581-1.266-.8-1.833-2.014-5.271-4.183-8.553-9.866-10.8-5.246-2.074-9.471-.786-14.365.707l-1.021.31c-.947.286-5.745,1.893-7.158,5.462a1,1,0,0,1-1.859-.737c1.707-4.312,6.891-6.172,8.44-6.639l1.014-.309c5.034-1.536,9.788-2.987,15.685-.653,6.339,2.508,8.833,6.279,11,11.946.2.53.468,1.1.747,1.712,1.186,2.578,2.662,5.786,1.36,9.076-1.517,3.833-3.8,4.41-6.439,5.079a27.3,27.3,0,0,0-3.195.962A1,1,0,0,1,162.811,483.848Z" fill="#1a1818"/>
      <path id="Path_195" data-name="Path 195" d="M165.379,477.42a32.9,32.9,0,0,1-5.4-.522,1,1,0,1,1,.332-1.972c6.066,1.021,7.9.125,7.915.116a1.016,1.016,0,0,1,1.345.387.983.983,0,0,1-.325,1.333C169.006,476.909,167.993,477.42,165.379,477.42Z" fill="#1a1818"/>
      <path id="Path_196" data-name="Path 196" d="M162.394,470.168a10.136,10.136,0,0,1-2.5-.317,8.619,8.619,0,0,1-5.577-4.288,5.746,5.746,0,0,0-4.007-3.07,5.178,5.178,0,0,0-3.953.684,1,1,0,0,1-1.26-1.553,7.149,7.149,0,0,1,5.605-1.092,7.8,7.8,0,0,1,5.376,4.084,6.663,6.663,0,0,0,4.317,3.3,6.137,6.137,0,0,0,4.083-.158,1,1,0,0,1,1.081,1.683A6.087,6.087,0,0,1,162.394,470.168Z" fill="#1a1818"/>
    </g>
    <g id="Group_599" data-name="Group 599" transform="translate(7200.264 11112.764)">
      <path id="Path_197" data-name="Path 197" d="M147.694,496c-3.894,0-7.17-2.648-9.779-7.924a34.755,34.755,0,0,1-3.492-12.988c-.238-4.939,1.129-8.4,3.852-9.747,6.087-3.008,14.527,5.917,18.284,13.514,1.934,3.912,2.5,7.132,1.746,9.845-.7,2.492-2.556,4.5-5.526,5.969A11.514,11.514,0,0,1,147.694,496Zm-6.868-29.236a3.709,3.709,0,0,0-1.664.37c-2.652,1.311-2.856,5.486-2.741,7.857a32.61,32.61,0,0,0,3.287,12.2c3.219,6.508,6.977,8.265,12.185,5.687,2.473-1.223,3.941-2.766,4.486-4.714.612-2.186.069-5.019-1.613-8.42C151.481,473.1,145.18,466.767,140.826,466.767Z" fill="#1a1818"/>
      <path id="Path_198" data-name="Path 198" d="M148.771,491.451a1.011,1.011,0,0,1-.271-.037c-2.415-.68-4.521-2.882-6.262-6.546-2.384-5.019-3.674-12.32-3.071-13.713a1,1,0,0,1,1.857.742c-.313,1.627,2.155,15.941,8.018,17.591a1,1,0,0,1-.271,1.963Zm-7.755-19.532-.014.033Z" fill="#1a1818"/>
      <path id="Path_199" data-name="Path 199" d="M151.264,486.522a.961.961,0,0,1-.639-.243c-1.179-1.035-4.585-8.2-5.819-11.61a1,1,0,0,1,1.881-.68c1.426,3.947,4.571,10.124,5.263,10.793a1.007,1.007,0,0,1-.686,1.74Z" fill="#1a1818"/>
    </g>
  </g>
</svg>
