<svg xmlns="http://www.w3.org/2000/svg" width="44.46" height="42.834" viewBox="0 0 44.46 42.834">
  <g id="Group_606" data-name="Group 606" transform="translate(-253.026 -454.594)">
    <g id="Group_604" data-name="Group 604">
      <path id="Path_208" data-name="Path 208" d="M278.676,497.428a7.743,7.743,0,0,1-3.035-.61c-4.222-1.79-6.332-7.218-5.017-12.907.168-.732.764-2.411.972-2.955a14.976,14.976,0,0,1,2.962-4.829,7.5,7.5,0,0,0,1.9-5.021,15.015,15.015,0,0,1,1.006-5.59,51.076,51.076,0,0,1,2.241-5.056c3.057-4.881,8.148-7.032,12.381-5.24,3.931,1.668,6.073,6.568,5.21,11.918a48.141,48.141,0,0,1-1.686,5.312,14.979,14.979,0,0,1-2.962,4.828h0a7.507,7.507,0,0,0-1.9,5.021,14.993,14.993,0,0,1-1.005,5.591c-.215.564-.869,2.176-1.216,2.819C286.266,494.906,282.388,497.428,278.676,497.428Zm10.308-40.834c-2.74,0-5.628,1.8-7.585,4.927-.408.653-1.66,3.639-2.066,4.706a13.026,13.026,0,0,0-.875,4.846,9.439,9.439,0,0,1-2.429,6.409,12.992,12.992,0,0,0-2.565,4.189c-.235.612-.764,2.136-.892,2.689-1.077,4.665.577,9.23,3.849,10.617,3.5,1.488,7.945-.76,10.345-5.216.263-.489.866-1.949,1.107-2.582a13.021,13.021,0,0,0,.874-4.847,9.45,9.45,0,0,1,2.43-6.409h0a12.993,12.993,0,0,0,2.565-4.188,48.811,48.811,0,0,0,1.58-4.916c.716-4.438-.936-8.451-4.017-9.757A5.9,5.9,0,0,0,288.984,456.594Z" fill="#1a1818"/>
      <path id="Path_209" data-name="Path 209" d="M287.165,474.075a4.978,4.978,0,0,1-1.489-.227c-3.249-1.022-4.842-5.195-3.551-9.3a8.98,8.98,0,0,1,3.266-4.656,5.349,5.349,0,0,1,8.5,2.671,8.985,8.985,0,0,1,.016,5.687C292.813,471.736,289.983,474.075,287.165,474.075Zm1.686-13.361a4.006,4.006,0,0,0-2.3.807,6.967,6.967,0,0,0-2.514,3.624c-.961,3.055.045,6.1,2.242,6.794s4.765-1.236,5.725-4.292a6.973,6.973,0,0,0,.011-4.411,3.643,3.643,0,0,0-2.253-2.383A3,3,0,0,0,288.851,460.714Z" fill="#1a1818"/>
      <path id="Path_210" data-name="Path 210" d="M279.1,493.12a5.068,5.068,0,0,1-1.517-.232,5.591,5.591,0,0,1-3.535-3.616,9.4,9.4,0,0,1,3.25-10.342,5.348,5.348,0,0,1,8.5,2.671,8.971,8.971,0,0,1,.016,5.687h0a8.974,8.974,0,0,1-3.265,4.655A5.966,5.966,0,0,1,279.1,493.12Zm1.657-13.365a4.014,4.014,0,0,0-2.3.806,7.412,7.412,0,0,0-2.524,8.035,3.365,3.365,0,0,0,5.464,1.717,7.414,7.414,0,0,0,2.524-8.036,3.64,3.64,0,0,0-2.252-2.383A3,3,0,0,0,280.761,479.755Zm4.105,7.233h0Z" fill="#1a1818"/>
    </g>
    <g id="Group_605" data-name="Group 605">
      <path id="Path_211" data-name="Path 211" d="M267.42,487.274a1,1,0,0,1-.791-.387,7.493,7.493,0,0,0-2.9-2.275,15,15,0,0,1-4.688-3.208,51.424,51.424,0,0,1-3.694-4.116c-3.2-4.788-3.077-10.314.294-13.44,3.131-2.9,8.479-2.85,13.006.131a48.1,48.1,0,0,1,4.154,3.713,15.45,15.45,0,0,1,2.249,2.857,1,1,0,1,1-1.708,1.041,13.405,13.405,0,0,0-1.958-2.486,49.128,49.128,0,0,0-3.836-3.455c-3.756-2.472-8.093-2.61-10.547-.335-2.635,2.443-2.632,6.91.009,10.863a50.954,50.954,0,0,0,3.446,3.813,12.989,12.989,0,0,0,4.062,2.784,9.521,9.521,0,0,1,3.694,2.888,1,1,0,0,1-.79,1.612Z" fill="#1a1818"/>
      <path id="Path_212" data-name="Path 212" d="M270.149,479.736a1,1,0,0,1-.856-.481c-3.152-5.2-5.813-9.108-8.9-8.241a1,1,0,0,1-.536-1.928c4.8-1.337,8.173,4.226,11.15,9.132a1,1,0,0,1-.854,1.518Z" fill="#1a1818"/>
      <path id="Path_213" data-name="Path 213" d="M262.865,480.563a1,1,0,0,1-1-1A8.806,8.806,0,0,1,264.8,473.8a7.9,7.9,0,0,1,5.892-2.307,1,1,0,1,1-.126,2,5.936,5.936,0,0,0-4.4,1.769,6.883,6.883,0,0,0-2.305,4.309A1,1,0,0,1,262.865,480.563Z" fill="#1a1818"/>
    </g>
  </g>
</svg>
