<svg xmlns="http://www.w3.org/2000/svg" width="42.986" height="42.856" viewBox="0 0 42.986 42.856">
  <g id="Group_603" data-name="Group 603" transform="translate(-315.16 -453.236)">
    <g id="Group_601" data-name="Group 601">
      <path id="Path_202" data-name="Path 202" d="M343.105,496.093a13.369,13.369,0,0,1-7.955-2.864c-.6-.452-1.884-1.684-2.3-2.1a14.976,14.976,0,0,1-3.191-4.681,7.5,7.5,0,0,0-3.8-3.791,14.986,14.986,0,0,1-4.688-3.208,51.077,51.077,0,0,1-3.7-4.116c-3.2-4.789-3.077-10.315.295-13.44,3.132-2.9,8.48-2.849,13.006.13a48.114,48.114,0,0,1,4.155,3.715,14.991,14.991,0,0,1,3.19,4.68,7.505,7.505,0,0,0,3.8,3.791,15,15,0,0,1,4.688,3.208c.428.428,1.631,1.687,2.074,2.265,3.713,4.838,3.839,10.967.292,14.256A8.5,8.5,0,0,1,343.105,496.093Zm-19.462-34.349a6.521,6.521,0,0,0-4.51,1.618c-2.634,2.443-2.631,6.909.009,10.863.427.639,2.639,3.005,3.446,3.813a12.993,12.993,0,0,0,4.063,2.784,9.441,9.441,0,0,1,4.85,4.842,13,13,0,0,0,2.77,4.057c.463.465,1.637,1.573,2.088,1.915,3.814,2.9,8.655,3.256,11.261.839,2.786-2.582,2.563-7.558-.519-11.574-.336-.438-1.422-1.588-1.9-2.067a12.989,12.989,0,0,0-4.062-2.784,9.45,9.45,0,0,1-4.851-4.842h0a13,13,0,0,0-2.769-4.057,48.689,48.689,0,0,0-3.836-3.454A11.172,11.172,0,0,0,323.643,461.744Z" fill="#1a1818"/>
      <path id="Path_203" data-name="Path 203" d="M342.692,488.284c-4.61,0-7.842-5.334-10.973-10.5-3.008-4.964-5.844-9.659-9.2-8.721a1,1,0,0,1-.536-1.928c4.8-1.326,8.18,4.228,11.442,9.612,2.96,4.884,6.025,9.93,9.732,9.512a1,1,0,1,1,.228,1.986A6.134,6.134,0,0,1,342.692,488.284Z" fill="#1a1818"/>
      <path id="Path_204" data-name="Path 204" d="M325,478.61a1,1,0,0,1-1-1,8.8,8.8,0,0,1,2.935-5.765,7.93,7.93,0,0,1,5.893-2.308,1,1,0,1,1-.126,2,5.921,5.921,0,0,0-4.4,1.77,6.877,6.877,0,0,0-2.3,4.307A1,1,0,0,1,325,478.61Z" fill="#1a1818"/>
      <path id="Path_205" data-name="Path 205" d="M333.919,486.656a1,1,0,0,1-1-1,8.806,8.806,0,0,1,2.935-5.766,7.92,7.92,0,0,1,5.893-2.307,1,1,0,1,1-.126,2,5.933,5.933,0,0,0-4.4,1.769,6.879,6.879,0,0,0-2.3,4.308A1,1,0,0,1,333.919,486.656Z" fill="#1a1818"/>
    </g>
    <g id="Group_602" data-name="Group 602">
      <path id="Path_206" data-name="Path 206" d="M352.573,476.243a1,1,0,0,1-.736-1.678,12.96,12.96,0,0,0,2.565-4.187,48.636,48.636,0,0,0,1.58-4.916c.717-4.439-.935-8.451-4.017-9.758-3.3-1.4-7.381.431-9.9,4.46-.408.652-1.661,3.639-2.066,4.7a1,1,0,1,1-1.869-.711,51.18,51.18,0,0,1,2.24-5.055c3.058-4.881,8.15-7.034,12.382-5.241,3.93,1.668,6.073,6.569,5.21,11.918a48.379,48.379,0,0,1-1.686,5.313,15.013,15.013,0,0,1-2.962,4.828A1,1,0,0,1,352.573,476.243Z" fill="#1a1818"/>
      <path id="Path_207" data-name="Path 207" d="M347.826,472.718a4.948,4.948,0,0,1-1.489-.228c-3.249-1.021-4.842-5.194-3.551-9.3s4.983-6.62,8.234-5.6a5.588,5.588,0,0,1,3.534,3.615,8.974,8.974,0,0,1,.016,5.688C353.474,470.379,350.644,472.718,347.826,472.718Zm1.674-13.364c-1.952,0-3.977,1.795-4.806,4.433-.96,3.056.046,6.105,2.243,6.8s4.764-1.235,5.725-4.292h0a6.962,6.962,0,0,0,.01-4.41,3.639,3.639,0,0,0-2.252-2.385A3.049,3.049,0,0,0,349.5,459.354Z" fill="#1a1818"/>
    </g>
  </g>
</svg>
