<?xml version="1.0" encoding="utf-8"?>
<!-- Generator: Adobe Illustrator 25.4.0, SVG Export Plug-In . SVG Version: 6.00 Build 0)  -->
<svg version="1.1" id="Layer_1" xmlns="http://www.w3.org/2000/svg" xmlns:xlink="http://www.w3.org/1999/xlink" x="0px" y="0px"
	 viewBox="0 0 100 100" style="enable-background:new 0 0 100 100;" xml:space="preserve">
<style type="text/css">
	.st0{fill:#FFFFFF;}
	.st1{fill:none;stroke:#000000;stroke-linecap:round;stroke-linejoin:round;stroke-miterlimit:10;}
</style>
<g>
	<path class="st0" d="M46.6,59.8H27.1c-1.2,0-2.3,0.5-3.1,1.5L11.4,76.7c-2.1,2.6-0.3,6.5,3.1,6.5h40.2c1.2,0,2.4-0.5,3.1-1.5
		l12.5-15.4c1-1.3,1.1-2.8,0.6-4.1"/>
	<path d="M54.7,83.7H14.5c-1.8,0-3.3-1-4.1-2.6s-0.5-3.4,0.6-4.8L23.6,61c0.9-1.1,2.1-1.7,3.5-1.7h19.5c0.3,0,0.5,0.2,0.5,0.5
		s-0.2,0.5-0.5,0.5H27.1c-1.1,0-2,0.5-2.7,1.3L11.8,77c-0.9,1.1-1,2.5-0.4,3.7c0.6,1.2,1.8,2,3.2,2h40.2c1.1,0,2.1-0.5,2.7-1.3
		L69.9,66c0.8-1,1-2.4,0.5-3.6c-0.1-0.3,0-0.5,0.3-0.7c0.3-0.1,0.5,0,0.7,0.3c0.7,1.6,0.4,3.3-0.6,4.6L58.2,82.1
		C57.4,83.1,56.1,83.7,54.7,83.7z"/>
</g>
<g>
	<path d="M22,77.8c-0.1,0-0.2,0-0.3-0.1c-0.2-0.2-0.2-0.5,0-0.7l10.6-12.2c0.2-0.2,0.5-0.2,0.7,0c0.2,0.2,0.2,0.5,0,0.7L22.4,77.6
		C22.3,77.7,22.1,77.8,22,77.8z"/>
</g>
<path class="st1" d="M70.6,28.5L48.3,61.2c0,0-0.5,0.6-0.3,1.3c0.1,0.8,1.2,8.2,1.2,8.2s0.2,1,1.1,0.8c0.9-0.2,8-1.9,8-1.9
	s0.6-0.1,1.1-0.8c0.4-0.6,19-27.8,23.9-34.9c0.6-0.9,0.4-2.2-0.6-2.8l-7.8-5.1c-0.9-0.6-1.2-1.9-0.6-2.8l3.7-5.4
	c0,0,1.3-1.6,2.9-0.5s7.7,5.3,7.7,5.3"/>
</svg>
