<svg id="thinking" xmlns="http://www.w3.org/2000/svg" width="28.773" height="28.773" viewBox="0 0 28.773 28.773">
  <g id="Group_288" data-name="Group 288">
    <g id="Group_287" data-name="Group 287">
      <path id="Path_76" data-name="Path 76" d="M19.182,0A9.509,9.509,0,0,0,11.9,3.358,8.09,8.09,0,1,0,8.093,18.583h.07a4.744,4.744,0,0,0,4.426,3A4.793,4.793,0,0,0,16.873,18.9,9.592,9.592,0,1,0,19.182,0Zm0,17.983A8.372,8.372,0,0,1,16.7,17.61a.6.6,0,0,0-.741.373,3.571,3.571,0,0,1-6.807-.193.709.709,0,0,0-.669-.424H8.44c-.116.008-.231.017-.349.017A6.894,6.894,0,1,1,11.729,4.642a.6.6,0,0,0,.792-.144,8.389,8.389,0,1,1,6.66,13.485Z" transform="translate(0)" fill="#005bae"/>
      <path id="Path_77" data-name="Path 77" d="M109.064,384a2.4,2.4,0,1,0,2.4,2.4A2.4,2.4,0,0,0,109.064,384Zm0,3.6a1.2,1.2,0,1,1,1.2-1.2A1.2,1.2,0,0,1,109.064,387.6Z" transform="translate(-100.672 -362.42)" fill="#005bae"/>
      <path id="Path_78" data-name="Path 78" d="M23.131,448a1.8,1.8,0,1,0,1.8,1.8A1.8,1.8,0,0,0,23.131,448Zm0,2.4a.6.6,0,1,1,.6-.6A.6.6,0,0,1,23.131,450.4Z" transform="translate(-20.134 -422.823)" fill="#005bae"/>
    </g>
  </g>
</svg>
