<svg xmlns="http://www.w3.org/2000/svg" width="38.669" height="45.507" viewBox="0 0 38.669 45.507">
  <g id="Group_459" data-name="Group 459" transform="translate(-379.989 -284.111)">
    <path id="Path_142" data-name="Path 142" d="M414.2,309.676a1,1,0,0,1-1,1H383.04a.973.973,0,0,0-.734.346,1.317,1.317,0,0,0-.306,1.036c1.055,8.544,7.7,15.069,15.653,15.562a1.009,1.009,0,0,1,.968,1h0a1.01,1.01,0,0,1-1.086,1c-8.91-.549-16.346-7.808-17.52-17.313a3.316,3.316,0,0,1,.793-2.606,2.948,2.948,0,0,1,2.232-1.021H413.2a1,1,0,0,1,1,1Z" fill="#005AB4"/>
    <path id="Path_143" data-name="Path 143" d="M382.8,302.738a.749.749,0,0,1-.75-.758l.043-4.051a2.592,2.592,0,0,1-1.154-.86,3.531,3.531,0,0,1-.7-2.161v-7.642a2.926,2.926,0,0,1,2.615-3.155h31.533A2.926,2.926,0,0,1,417,287.266V294.9a2.926,2.926,0,0,1-2.614,3.155l-24.939,0-6.2,4.531A.746.746,0,0,1,382.8,302.738Zm.05-6.175a.75.75,0,0,1,.75.758l-.034,3.179,5.191-3.793a.746.746,0,0,1,.442-.144l25.184,0c.6,0,1.114-.758,1.114-1.655v-7.639c0-.9-.51-1.655-1.114-1.655H382.854c-.6,0-1.115.757-1.115,1.655v7.642a2.06,2.06,0,0,0,.389,1.242.97.97,0,0,0,.726.413Z" fill="#005AB4"/>
    <path id="Path_144" data-name="Path 144" d="M410.9,289.819H384.626a.75.75,0,0,1,0-1.5H410.9a.75.75,0,1,1,0,1.5Z" fill="#005AB4"/>
    <path id="Path_145" data-name="Path 145" d="M401.158,293.04H384.626a.75.75,0,0,1,0-1.5h16.532a.75.75,0,0,1,0,1.5Z" fill="#005AB4"/>
    <path id="Path_146" data-name="Path 146" d="M413.742,315.524a4.922,4.922,0,0,0-4.812,3.915H405.4a4.916,4.916,0,1,0,0,2h3.533a4.915,4.915,0,1,0,4.812-5.915Zm-13.158,7.831a2.916,2.916,0,1,1,2.916-2.916A2.919,2.919,0,0,1,400.584,323.355Zm13.158,0a2.916,2.916,0,1,1,2.916-2.916A2.919,2.919,0,0,1,413.742,323.355Z" fill="#005AB4"/>
  </g>
</svg>
