<svg xmlns="http://www.w3.org/2000/svg" width="37.012" height="45.507" viewBox="0 0 37.012 45.507">
  <g id="Group_458" data-name="Group 458" transform="translate(-318.445 -284.111)">
    <path id="Path_136" data-name="Path 136" d="M352.656,309.676a1,1,0,0,1-1,1H321.495a.975.975,0,0,0-.734.346,1.313,1.313,0,0,0-.3,1.036c1.054,8.544,7.7,15.069,15.652,15.562a1.009,1.009,0,0,1,.968,1h0a1.01,1.01,0,0,1-1.086,1c-8.91-.549-16.346-7.808-17.52-17.313a3.319,3.319,0,0,1,.793-2.606,2.948,2.948,0,0,1,2.232-1.021h30.161a1,1,0,0,1,1,1Z" fill="#005AB4"/>
    <path id="Path_137" data-name="Path 137" d="M321.259,302.738a.75.75,0,0,1-.75-.758l.043-4.051a2.592,2.592,0,0,1-1.154-.86,3.531,3.531,0,0,1-.7-2.161v-7.642a2.926,2.926,0,0,1,2.615-3.155h31.533a2.926,2.926,0,0,1,2.615,3.155V294.9a2.926,2.926,0,0,1-2.615,3.155l-24.939,0-6.2,4.531A.746.746,0,0,1,321.259,302.738Zm.05-6.175a.749.749,0,0,1,.75.758l-.034,3.179,5.191-3.793a.746.746,0,0,1,.442-.144l25.184,0c.6,0,1.115-.758,1.115-1.655v-7.639c0-.9-.511-1.655-1.115-1.655H321.309c-.6,0-1.115.757-1.115,1.655v7.642a2.06,2.06,0,0,0,.389,1.242.971.971,0,0,0,.726.413Z" fill="#005AB4"/>
    <path id="Path_138" data-name="Path 138" d="M349.354,289.819H323.081a.75.75,0,1,1,0-1.5h26.273a.75.75,0,0,1,0,1.5Z" fill="#005AB4"/>
    <path id="Path_139" data-name="Path 139" d="M339.613,293.04H323.081a.75.75,0,1,1,0-1.5h16.532a.75.75,0,0,1,0,1.5Z" fill="#005AB4"/>
    <g id="Group_457" data-name="Group 457">
      <path id="Path_140" data-name="Path 140" d="M352.878,321.689H340.416a1,1,0,0,1,0-2h12.462a1,1,0,1,1,0,2Z" fill="#005AB4"/>
      <path id="Path_141" data-name="Path 141" d="M346.647,327.92a1,1,0,0,1-1-1V314.458a1,1,0,0,1,2,0V326.92A1,1,0,0,1,346.647,327.92Z" fill="#005AB4"/>
    </g>
  </g>
</svg>
