<?xml version="1.0" encoding="utf-8"?>
<!-- Generator: Adobe Illustrator 25.4.0, SVG Export Plug-In . SVG Version: 6.00 Build 0)  -->
<svg version="1.1" id="Layer_1" xmlns="http://www.w3.org/2000/svg" xmlns:xlink="http://www.w3.org/1999/xlink" x="0px" y="0px"
	 viewBox="0 0 30.8 47.3" style="enable-background:new 0 0 30.8 47.3;" xml:space="preserve">
<style type="text/css">
	.st0{fill:#1B5BAE;}
	.st1{fill:#FFFFFF;}
</style>
<g id="Group_262" transform="translate(-167.829 -275.34)">
	<path id="Path_52" class="st0" d="M183,275.3c-8.4,0.1-15.1,6.9-15.2,15.3c0,2.8,0.8,5.6,2.2,8c4,6.5,7.6,13.3,10.8,20.4l1.3,2.9
		c0.3,0.6,1,0.9,1.6,0.6c0.3-0.1,0.5-0.3,0.6-0.6l1.1-2.5c3.2-7.2,6.9-14.1,11-20.8c1.4-2.4,2.2-5.1,2.2-7.9
		c0-8.5-6.9-15.4-15.4-15.4C183.1,275.3,183.1,275.3,183,275.3z M183.2,295.8c-3.6,0-6.5-2.9-6.5-6.5l0,0c0-3.6,2.9-6.5,6.5-6.5l0,0
		c3.6,0,6.5,2.9,6.5,6.5l0,0C189.7,292.9,186.8,295.8,183.2,295.8L183.2,295.8L183.2,295.8z"/>
	<circle id="Ellipse_10" class="st1" cx="183.2" cy="289.3" r="7"/>
	<g>
		<path class="st0" d="M180.4,292.3l0-0.1c0,0,0.1-0.1,0.1-0.3c0.1-0.1,0.2-0.3,0.4-0.5c0.2-0.2,0.4-0.5,0.7-0.8
			c0.3-0.3,0.7-0.7,1.2-1.2c0.1-0.1,0.3-0.3,0.5-0.5c0.2-0.2,0.4-0.4,0.6-0.6c0.2-0.2,0.4-0.4,0.5-0.7c0.2-0.2,0.3-0.4,0.3-0.7v0
			c0.1-0.3,0-0.6-0.3-0.9c-0.2-0.2-0.3-0.3-0.5-0.4c-0.2-0.1-0.4-0.1-0.6-0.1c-0.3,0-0.6,0.1-0.9,0.3c-0.2,0.2-0.4,0.4-0.5,0.7
			l-1.4-0.3c0.1-0.3,0.2-0.6,0.3-0.8c0.2-0.2,0.3-0.5,0.6-0.6c0.2-0.2,0.5-0.3,0.8-0.4s0.6-0.2,0.9-0.2c0.5,0,0.9,0.1,1.2,0.2
			c0.4,0.1,0.7,0.4,1,0.7c0.3,0.3,0.4,0.6,0.5,0.9c0.1,0.3,0.1,0.7,0.1,1.1c0,0,0,0,0,0c0,0.3-0.1,0.6-0.3,0.9
			c-0.2,0.3-0.4,0.6-0.6,0.9c-0.2,0.3-0.5,0.6-0.7,0.8s-0.5,0.5-0.7,0.7c-0.3,0.3-0.6,0.6-0.8,0.8s-0.4,0.4-0.6,0.6h3.8v1.4h-5.8
			V292.3z"/>
	</g>
</g>
</svg>
