<?xml version="1.0" encoding="utf-8"?>
<!-- Generator: Adobe Illustrator 25.4.0, SVG Export Plug-In . SVG Version: 6.00 Build 0)  -->
<svg version="1.1" id="Layer_1" xmlns="http://www.w3.org/2000/svg" xmlns:xlink="http://www.w3.org/1999/xlink" x="0px" y="0px"
	 viewBox="0 0 30.8 47.3" style="enable-background:new 0 0 30.8 47.3;" xml:space="preserve">
<style type="text/css">
	.st0{fill:#1B5BAE;}
	.st1{fill:#FFFFFF;}
</style>
<g id="Group_262" transform="translate(-167.829 -275.34)">
	<path id="Path_52" class="st0" d="M183,275.3c-8.4,0.1-15.1,6.9-15.2,15.3c0,2.8,0.8,5.6,2.2,8c4,6.5,7.6,13.3,10.8,20.4l1.3,2.9
		c0.3,0.6,1,0.9,1.6,0.6c0.3-0.1,0.5-0.3,0.6-0.6l1.1-2.5c3.2-7.2,6.9-14.1,11-20.8c1.4-2.4,2.2-5.1,2.2-7.9
		c0-8.5-6.9-15.4-15.4-15.4C183.1,275.3,183.1,275.3,183,275.3z M183.2,295.8c-3.6,0-6.5-2.9-6.5-6.5l0,0c0-3.6,2.9-6.5,6.5-6.5l0,0
		c3.6,0,6.5,2.9,6.5,6.5l0,0C189.7,292.9,186.8,295.8,183.2,295.8L183.2,295.8L183.2,295.8z"/>
	<circle id="Ellipse_10" class="st1" cx="183.2" cy="289.3" r="7"/>
	<g>
		<path class="st0" d="M181.8,291.8c0.2,0.3,0.3,0.5,0.5,0.7c0.1,0.1,0.2,0.1,0.4,0.1c0.1,0,0.2,0,0.4,0c0.3,0,0.6-0.1,0.8-0.2
			s0.4-0.3,0.6-0.5c0.1-0.2,0.3-0.4,0.3-0.7c0.1-0.3,0.1-0.5,0.2-0.8c-0.2,0.2-0.5,0.3-0.8,0.4c-0.3,0.1-0.6,0.1-0.8,0.1
			c-0.4,0-0.8-0.1-1.2-0.2c-0.4-0.2-0.7-0.4-0.9-0.6c-0.3-0.3-0.5-0.6-0.6-1s-0.2-0.7-0.2-1.2s0.1-0.8,0.2-1.2
			c0.2-0.4,0.4-0.7,0.6-1c0.3-0.3,0.6-0.5,0.9-0.7c0.4-0.2,0.7-0.2,1.2-0.2c0.4,0,0.7,0.1,1,0.2c0.3,0.1,0.6,0.3,0.9,0.5
			s0.5,0.5,0.7,0.8s0.3,0.6,0.4,1c0,0,0,0.1,0,0.2c0,0.1,0,0.3,0.1,0.4c0,0.2,0,0.4,0.1,0.6s0,0.5,0,0.7c0,0.6-0.1,1.1-0.2,1.6
			c-0.1,0.5-0.3,1-0.5,1.5c-0.3,0.4-0.6,0.8-1,1.1c-0.4,0.3-0.9,0.4-1.6,0.5c-0.6,0-1.1-0.1-1.5-0.4c-0.4-0.3-0.8-0.7-1-1.2
			L181.8,291.8z M182.7,286.5c-0.2,0.1-0.4,0.2-0.5,0.3c-0.1,0.1-0.3,0.3-0.3,0.5s-0.1,0.4-0.1,0.6c0,0.2,0,0.4,0.1,0.6
			s0.2,0.4,0.3,0.5c0.1,0.1,0.3,0.3,0.5,0.3c0.2,0.1,0.4,0.1,0.6,0.1s0.4,0,0.6-0.1s0.4-0.2,0.5-0.3c0.1-0.1,0.3-0.3,0.3-0.5
			s0.1-0.4,0.1-0.6c0-0.1,0-0.1,0-0.2c0-0.1,0-0.1,0-0.1c0-0.2-0.1-0.4-0.2-0.5c-0.1-0.2-0.2-0.3-0.3-0.4c-0.1-0.1-0.3-0.2-0.5-0.3
			s-0.3-0.1-0.5-0.1C183.1,286.3,182.9,286.4,182.7,286.5z"/>
	</g>
</g>
</svg>
