<?xml version="1.0" encoding="utf-8"?>
<!-- Generator: Adobe Illustrator 25.4.0, SVG Export Plug-In . SVG Version: 6.00 Build 0)  -->
<svg version="1.1" id="Layer_1" xmlns="http://www.w3.org/2000/svg" xmlns:xlink="http://www.w3.org/1999/xlink" x="0px" y="0px"
	 viewBox="0 0 110 110" style="enable-background:new 0 0 110 110;" xml:space="preserve">
<style type="text/css">
	.st0{fill:none;stroke:#000000;stroke-width:3;stroke-linecap:round;stroke-linejoin:round;stroke-miterlimit:10;}
	.st1{fill:none;stroke:#000000;stroke-width:2;stroke-miterlimit:10;}
	.st2{fill:none;stroke:#000000;stroke-width:1.45;stroke-linecap:round;stroke-miterlimit:10;}
</style>
<path class="st0" d="M83.7,94.7c-8.1,5.8-18,9.3-28.7,9.3C28,104,6,82,6,55S28,6,55,6s49,21.9,49,49c0,7.8-1.8,15.2-5.1,21.8"/>
<path class="st0" d="M81.5,35.8c3.9,5.4,6.2,12,6.2,19.2c0,18.1-14.7,32.8-32.8,32.8S22.2,73.1,22.2,55S36.9,22.2,55,22.2
	c5.2,0,10.2,1.2,14.6,3.4"/>
<g>
	<g>
		<path class="st1" d="M68.3,47c0,7.4-11.8,29.3-13.3,29.3c-1.6,0-13.3-22-13.3-29.3s6-13.3,13.3-13.3S68.3,39.6,68.3,47z"/>
		<circle class="st1" cx="55" cy="46.9" r="7.5"/>
	</g>
	<g>
		<path class="st2" d="M52.9,50.5c0,0-1.6-2.2-1.6-3c0-0.7,2-3.9,2.5-4.5c0.1-0.1,0.1-0.1,0.2,0c0.5,0.6,2.5,4,2.5,4.5
			c0,0.6-0.5,1-0.5,1"/>
		<path class="st2" d="M55.7,42.1c0,0,3.1,4.5,3.1,5.3c0,0.7-1.2,2.4-1.6,2.9c-0.1,0.1-0.2,0.2-0.4,0.2h-1.2c-0.2,0-0.3-0.1-0.4-0.2
			l-1.6-2.6c-0.1-0.1-0.1-0.3,0-0.4l0.6-0.8"/>
	</g>
</g>
</svg>
