<svg xmlns="http://www.w3.org/2000/svg" width="35.982" height="23.407" viewBox="0 0 35.982 23.407">
  <g id="Group_551" data-name="Group 551" transform="translate(-503.895 -550.378)">
    <path id="Path_2" data-name="Path 2" d="M529.441,572.541l-5.453-.472a24.4,24.4,0,0,0-4.2,0l-14,1.21A1.28,1.28,0,0,1,504.395,572V553.475a1.282,1.282,0,0,1,1.171-1.277l14.218-1.229a24.4,24.4,0,0,1,4.2,0l14.218,1.229a1.282,1.282,0,0,1,1.171,1.277v10.692" fill="none" stroke="#005ab4" stroke-linecap="round" stroke-miterlimit="10" stroke-width="1"/>
    <line id="Line_66" data-name="Line 66" x1="9.163" y1="0.94" transform="translate(525.614 555.655)" fill="none" stroke="#005ab4" stroke-linecap="round" stroke-miterlimit="10" stroke-width="1"/>
    <line id="Line_67" data-name="Line 67" x1="9.163" y1="0.94" transform="translate(525.614 561.69)" fill="none" stroke="#005ab4" stroke-linecap="round" stroke-miterlimit="10" stroke-width="1"/>
    <line id="Line_68" data-name="Line 68" x1="3.553" y1="0.364" transform="translate(525.614 567.709)" fill="none" stroke="#005ab4" stroke-linecap="round" stroke-miterlimit="10" stroke-width="1"/>
    <path id="Path_3" data-name="Path 3" d="M510.954,569.262a.328.328,0,0,1-.314-.34v-5.028c0-.534,0-1.264-.385-1.582a4.6,4.6,0,0,1-1.582-3.192c0-1.911,1.023-3.465,2.281-3.465s2.282,1.554,2.282,3.465a4.68,4.68,0,0,1-.546,2.259.3.3,0,0,1-.433.114.358.358,0,0,1-.105-.468,3.945,3.945,0,0,0,.455-1.905c0-1.51-.757-2.785-1.653-2.785s-1.652,1.275-1.652,2.785a3.9,3.9,0,0,0,1.335,2.651,2.679,2.679,0,0,1,.632,2.123v5.028A.328.328,0,0,1,510.954,569.262Z" fill="#005ab4"/>
    <path id="Path_4" data-name="Path 4" d="M516.848,568.174a.341.341,0,0,1-.341-.34V554.907a.34.34,0,1,1,.681,0v12.927A.34.34,0,0,1,516.848,568.174Z" fill="#005ab4"/>
    <path id="Path_5" data-name="Path 5" d="M515.292,568.494a.34.34,0,0,1-.34-.34V555.227a.34.34,0,1,1,.68,0v12.927A.34.34,0,0,1,515.292,568.494Z" fill="#005ab4"/>
  </g>
</svg>
