<svg xmlns="http://www.w3.org/2000/svg" width="21.322" height="21.366" viewBox="0 0 21.322 21.366">
  <path id="Path_1" data-name="Path 1" d="M468.1,570.852l1.982-1.982a.746.746,0,0,0,.005-1.049l-2.548-2.6a.745.745,0,0,0-1.06-.005l-1.348,1.35a2.8,2.8,0,0,1-2.674.76,11.243,11.243,0,0,1-7.472-7.464,2.8,2.8,0,0,1,.773-2.688l1.351-1.332a.746.746,0,0,0,0-1.058l-2.59-2.59a.745.745,0,0,0-1.054,0l-2.257,2.257a4.526,4.526,0,0,0-1.151,2.6c-.129,3.218,1.569,7.16,4.8,10.392a15.44,15.44,0,0,0,9.5,4.791" transform="translate(-449.552 -551.398)" fill="none" stroke="#005ab4" stroke-linecap="round" stroke-miterlimit="10" stroke-width="1"/>
</svg>
